<svg xmlns="http://www.w3.org/2000/svg" viewBox="0 0 128 128">
  <defs>
    <style>
      .ln{fill:none;stroke:#2f2f2f;stroke-width:3;stroke-linecap:round;stroke-linejoin:round}
      .hl{fill:#f2f2f2;stroke:#2f2f2f;stroke-width:3;stroke-linejoin:round}
      .dk{fill:#b8b8b8;stroke:#2f2f2f;stroke-width:3;stroke-linejoin:round}
      .gl{fill:#8ed4ff;stroke:#2f2f2f;stroke-width:2}
    </style>
  </defs>

  <path class="hl" d="M64 10 C30 10 14 32 12 58 L12 70 C14 96 34 116 64 118 C94 116 114 96 116 70 L116 58 C114 32 98 10 64 10 Z"/>
  <path class="dk" d="M28 44 H48 V58 H26 Z"/>
  <path class="dk" d="M80 44 H100 V58 H82 Z"/>

  <circle class="dk" cx="64" cy="58" r="18"/>
  <circle class="gl" cx="64" cy="58" r="8"/>

  <path class="hl" d="M54 10 H74 V34 H54 Z"/>
  <path class="dk" d="M58 16 H70 V28 H58 Z"/>

  <path class="ln" d="M12 66 H116"/>
  <path class="ln" d="M18 80 H110"/>
  <path class="ln" d="M24 92 H104"/>
  <path class="ln" d="M36 104 H92"/>
  <path class="ln" d="M50 114 H78"/>
  <path class="ln" d="M64 40 V76"/>
  <path class="ln" d="M46 58 H82"/>

  <circle class="gl" cx="30" cy="50" r="3"/>
  <circle class="gl" cx="98" cy="50" r="3"/>
</svg>
